<?xml version="1.0" encoding="UTF-8" standalone="no"?>
<svg
   xmlns:dc="http://purl.org/dc/elements/1.1/"
   xmlns:cc="http://creativecommons.org/ns#"
   xmlns:rdf="http://www.w3.org/1999/02/22-rdf-syntax-ns#"
   xmlns:svg="http://www.w3.org/2000/svg"
   xmlns="http://www.w3.org/2000/svg"
   xmlns:sodipodi="http://sodipodi.sourceforge.net/DTD/sodipodi-0.dtd"
   xmlns:inkscape="http://www.inkscape.org/namespaces/inkscape"
   width="1000.0001"
   height="497.06473"
   viewBox="0 0 264.58334 131.51504"
   version="1.1"
   id="svg6584"
   inkscape:version="1.0.2-2 (e86c870879, 2021-01-15)"
   sodipodi:docname="Nickelodeon_1985_Blimp_Alt.svg"
   inkscape:export-filename="C:\Users\tjdru\OneDrive\Pictures\Logos\TV\nickelodeonlogo1985blimp.png"
   inkscape:export-xdpi="176.58801"
   inkscape:export-ydpi="176.58801">
  <defs
     id="defs6578" />
  <sodipodi:namedview
     id="base"
     pagecolor="#ffffff"
     bordercolor="#666666"
     borderopacity="1.0"
     inkscape:pageopacity="0.0"
     inkscape:pageshadow="2"
     inkscape:zoom="0.5"
     inkscape:cx="493.33285"
     inkscape:cy="198.11921"
     inkscape:document-units="mm"
     inkscape:current-layer="layer1"
     showgrid="false"
     inkscape:snap-global="false"
     inkscape:window-width="1366"
     inkscape:window-height="705"
     inkscape:window-x="-8"
     inkscape:window-y="-8"
     inkscape:window-maximized="1"
     showguides="false"
     inkscape:guide-bbox="true"
     inkscape:document-rotation="0"
     units="px"
     inkscape:snap-bbox="false"
     inkscape:bbox-nodes="true"
     inkscape:snap-nodes="true"
     inkscape:snap-page="false" />
  <metadata
     id="metadata6581">
    <rdf:RDF>
      <cc:Work
         rdf:about="">
        <dc:format>image/svg+xml</dc:format>
        <dc:type
           rdf:resource="http://purl.org/dc/dcmitype/StillImage" />
        <dc:title></dc:title>
      </cc:Work>
    </rdf:RDF>
  </metadata>
  <g
     inkscape:label="Layer 1"
     inkscape:groupmode="layer"
     id="layer1"
     transform="translate(-45.347806,-137.02019)"
     style="display:inline;opacity:1">
    <g
       id="g69">
      <path
         style="fill:#ff7400;fill-opacity:1;stroke:none;stroke-width:0.486689px;stroke-linecap:butt;stroke-linejoin:miter;stroke-opacity:1"
         d="m 112.85378,155.77535 c 0,0 44.0531,-17.34295 88.2915,-18.62644 31.10654,-0.90249 69.1358,2.76077 91.78508,16.72042 20.43467,12.5947 21.45323,40.55861 8.3602,55.54937 -21.02839,24.07627 -64.01039,28.90792 -64.01039,28.90792 0.26898,7.31288 0.0903,11.40474 -1.06554,14.15993 -1.28697,3.06765 -4.02875,4.53909 -8.46964,6.89356 -1.5529,5.57707 -3.78562,7.63798 -10.22166,8.50273 -10.19164,1.36937 -29.89636,0.53069 -43.04906,-2.02487 -4.27812,-0.83124 -4.36086,-3.25835 -4.30176,-8.08733 -5.60202,-0.91316 -9.14217,-1.80668 -11.55635,-4.22577 -2.30329,-2.30801 -4.06834,-6.85638 -5.13453,-13.28371 -11.69839,-0.97942 -28.41495,-4.39886 -40.40717,-8.25942 -8.6534,10.33935 -16.726705,10.96415 -30.294645,11.72197 -8.12938,0.45405 -21.95011,1.10912 -26.765,-4.2612 -3.49095,-3.89366 -1.84261,-12.26023 8.18474,-25.28435 0,0 -10.87389,-6.85184 -11.75592,-14.83316 -1.06214,-9.61091 5.51499,-14.02411 5.51499,-14.02411 -10.164,-14.04807 -13.72645,-25.34597 -12.31487,-32.39444 1.47453,-7.36286 7.21545,-9.41421 21.26352,-9.05634 16.63514,0.42378 36.321575,1.40077 45.946505,11.90524 z"
         id="path4448"
         sodipodi:nodetypes="ccccccccccccccccccccc" />
      <path
         sodipodi:nodetypes="cccccccccccccccccccccccccccccccccccccccc"
         inkscape:connector-curvature="0"
         id="path4450"
         d="m 234.72725,248.31904 c -0.58505,4.02159 -1.62964,5.22982 -3.48561,6.21194 -1.48268,0.78459 -5.01069,1.25531 -5.01069,1.25531 l 0.32701,-5.28894 c 3.22853,-0.63064 5.98119,-1.36464 8.16929,-2.17831 z m -75.81,0.44484 c 1.25837,0.35562 2.60868,0.6934 4.05115,1.0094 l 0.69835,4.64756 c -1.79553,-0.54369 -2.51202,-1.12036 -3.14579,-1.78264 -0.93148,-0.97344 -1.30984,-2.15456 -1.60371,-3.87432 z m 6.36866,1.48484 c 2.25608,0.43353 4.67804,0.82346 7.24734,1.16002 l 0.55476,5.02634 c -2.78534,-0.44485 -5.1076,-0.84302 -7.29435,-1.41267 z m 58.70361,6.0118 c -2.5708,0.49796 -5.46818,0.91699 -8.61332,1.24564 l 0.10993,-5.43955 c 3.15568,-0.30625 6.11588,-0.69195 8.82111,-1.1493 z m -49.25298,-4.57159 c 2.32608,0.26979 4.9942,0.52877 7.4954,0.71338 l 0.37917,5.28783 c -2.59456,-0.22682 -5.04429,-0.51105 -7.34748,-0.83688 z m 38.45508,6.09313 c -2.71924,0.24487 -5.57798,0.42238 -8.52113,0.52914 l -0.11239,-5.45692 c 2.95593,-0.10816 5.83934,-0.2798 8.60758,-0.51223 z m -28.86049,-5.24979 c 2.51144,0.15469 5.08745,0.32464 7.70596,0.38785 l 0.17916,5.35155 c -2.66275,-0.0819 -4.96413,-0.21978 -7.43855,-0.40258 z m 18.09319,5.77521 c -2.89987,0.053 -5.40019,0.0762 -8.01146,0.007 l -0.14845,-5.33055 c 2.72893,0.0331 5.65652,0.0129 8.04204,-0.0484 z"
         style="vector-effect:none;fill:#ffffff;fill-opacity:1;fill-rule:nonzero;stroke:none;stroke-width:0.707125;stroke-linecap:butt;stroke-linejoin:miter;stroke-miterlimit:4;stroke-dasharray:none;stroke-dashoffset:0;stroke-opacity:1;paint-order:markers stroke fill" />
      <path
         id="path451-7"
         style="display:inline;fill:#ffffff;fill-opacity:1;stroke:none;stroke-width:0.338431"
         d="m 99.267026,169.30142 c -0.945681,0 -1.571796,0.67157 -1.823224,1.49179 l -4.048201,13.20861 c -0.08916,0.29095 -0.351412,0.37266 -0.351412,0.37266 -0.67713,-4.2678 -1.491651,-8.12308 -3.002476,-12.21323 -0.35917,-0.97233 -4.262709,-2.9175 -7.289801,-2.75728 -0.754366,0.0401 -1.225459,0.74715 -1.438463,1.43115 -3.20421,10.29015 -6.001829,20.33638 -8.364058,31.13726 -0.109061,0.49932 -0.194359,1.01378 -0.01213,1.43294 0.760033,1.74209 3.754651,2.08459 5.763399,2.032 0.799473,-0.0221 1.727504,-0.32162 1.940955,-1.22598 l 4.589605,-18.89552 c 0.09851,-0.4177 0.415749,-0.51225 0.415749,-0.51225 1.062661,6.07294 2.059502,11.44801 3.12141,17.52748 0.09282,0.53168 0.302385,1.28822 0.846063,1.80865 1.198104,1.14688 4.890851,1.76358 6.630703,0.89643 1.093431,-0.54497 0.137099,-1.80806 0.3939,-2.75178 0,0 2.740488,-10.17083 3.896495,-14.48498 1.52411,-5.68811 3.30888,-11.72439 4.44147,-15.95127 0.24424,-0.91151 -0.45509,-1.81825 -2.05927,-2.20258 -1.13346,-0.27154 -2.78317,-0.3441 -3.65133,-0.3441 z m 162.367904,7.55261 c -0.4761,-0.002 -0.99104,0.0571 -1.46024,0.21057 -6.56816,2.14768 -10.19884,8.69366 -11.20694,15.96947 -0.60168,4.34239 0.51125,9.03353 3.59059,11.49221 3.11588,2.4879 7.16322,1.79897 9.61677,0.22997 6.78409,-4.33824 9.11178,-13.58265 8.43207,-21.75961 -0.15048,-1.8082 -1.10759,-4.86812 -2.04597,-5.55281 -1.98428,-1.44784 -4.19714,2.36264 -5.04843,2.25354 -0.26937,-0.0344 0.25051,-2.01792 -0.21844,-2.48779 -0.18134,-0.18153 -0.86583,-0.35275 -1.65936,-0.35568 z m -62.79827,0.0375 c -0.60219,3e-5 -1.26383,0.0961 -1.73885,0.24347 -7.44814,2.30924 -10.61438,10.90698 -11.16198,16.79009 -0.44841,4.81714 0.76191,8.64048 3.97779,10.89678 3.03163,2.12705 6.8477,1.44172 9.30543,-0.12034 6.7956,-4.31861 8.99237,-13.67666 8.33435,-21.81668 -0.1457,-1.79995 -0.99594,-4.69092 -1.9325,-5.37251 -1.9804,-1.44131 -4.28562,2.1771 -5.15038,2.17828 -0.27142,6.1e-4 0.21353,-1.99703 -0.25307,-2.46598 -0.23589,-0.23709 -0.77855,-0.33319 -1.38079,-0.33317 z m -85.16299,12.83901 c -1.47331,5.49856 -2.09514,12.09638 2.45807,15.27269 1.69355,1.18145 4.25999,0.92544 6.02196,0.38666 3.33722,-1.02054 5.67495,-4.04235 6.47776,-6.52268 0.40238,-1.24323 1.23183,-3.51432 0.41636,-4.32981 -1.06381,-1.06375 -3.31331,-1.09818 -5.08061,-0.1615 -1.65465,0.87703 -1.27875,3.74594 -3.25679,3.46382 -0.89108,-0.12714 -0.78152,-2.88131 -0.49526,-4.37663 0.4061,-2.12137 1.11084,-4.35594 2.01074,-6.29809 0.59525,-1.28456 1.6789,-2.91981 2.41619,-3.14085 0.60739,-0.18226 1.02744,0.37534 0.86974,1.1459 -0.16673,0.81404 -0.49371,1.76906 0.10967,2.12364 0.96465,0.56669 3.85765,0.873 5.28028,-0.41393 1.69751,-1.53563 1.41569,-4.82854 1.03238,-6.38124 -0.56522,-2.28968 -2.96529,-3.42603 -5.4053,-3.46983 -0.16268,-0.002 -0.3255,-6.1e-4 -0.488,0.004 -6.75247,0.28167 -10.88163,7.15094 -12.36738,12.69572 z M 277.7137,177.04571 c -0.6967,0.0129 -1.30477,0.21278 -1.54587,0.82968 -3.14096,8.03647 -5.06698,16.4356 -7.34747,25.00726 -0.40369,1.51752 1.85742,2.52464 5.13343,2.54061 0.91184,0.004 1.50861,-0.49599 1.80012,-1.29883 0.27739,-0.76382 3.54203,-13.51991 3.54203,-13.51991 1.22212,4.36245 1.29593,8.96075 2.70329,13.33906 0.13522,0.42023 1.65927,1.049 3.34717,1.34192 1.28934,0.22384 2.96318,0.33385 3.53418,-0.298 0.57579,-0.63718 -0.0129,-1.49249 0.17417,-2.09388 2.36225,-7.57651 4.80709,-15.132 6.33814,-23.27272 0.0917,-0.48702 -0.0269,-0.92101 -0.39267,-1.10218 -1.59893,-0.79146 -5.19661,-2.11286 -5.63595,-1.07487 -1.3973,3.30143 -2.18051,6.99237 -3.04131,10.67649 -0.0733,0.31381 -0.31856,0.50706 -0.35262,0.33382 -0.47874,-2.44625 -1.07478,-4.84934 -1.64356,-7.29102 -0.58501,-2.51138 -3.20215,-3.58979 -5.32397,-3.98632 -0.42125,-0.0786 -0.87115,-0.13871 -1.28913,-0.131 z m -60.09561,0.0316 c -1.85015,-0.007 -3.67175,0.23807 -5.1838,0.62087 -1.06761,0.27037 -1.63493,0.69357 -2.3039,1.5568 -0.47821,0.61708 -1.11459,3.40357 -1.46147,5.14184 -0.0926,0.46364 -0.0246,0.6724 0.18826,0.77328 0.70177,0.33378 1.36268,-0.0165 1.90456,-0.30346 0.38429,-0.20344 0.5645,0.16498 0.49402,0.45454 -1.22802,5.05084 -3.03837,9.59448 -3.81392,14.84428 -0.19864,1.34295 2.73626,4.4282 3.71379,4.9926 2.58719,1.49367 8.60312,-0.10896 12.81466,-3.80726 4.21161,-3.69842 7.14239,-11.10631 5.21111,-17.09231 -1.16878,-3.62266 -3.96441,-5.73363 -7.3262,-6.65072 -1.34141,-0.36597 -2.798,-0.52469 -4.237,-0.53046 z m -107.34141,0.049 c -1.26542,-0.032 -2.36157,0.20004 -2.64009,0.80721 -2.13957,4.66315 -5.84999,19.30228 -6.5245,21.81967 -0.60789,2.26867 -0.90305,3.44137 -0.18034,4.16413 0.8989,0.89893 3.3455,1.73716 5.27848,1.50946 0.62247,-0.0731 1.28596,-0.22483 1.67086,-0.66884 0.30399,-0.35082 5.967,-21.49606 6.25437,-22.55771 0.26843,-0.99162 0.54027,-1.99884 0.70104,-3.05223 0.0869,-0.57018 -0.46551,-1.03464 -0.90311,-1.2412 -0.95663,-0.45147 -2.39132,-0.74823 -3.65677,-0.78049 z m 67.06015,0.004 c -0.76975,0.002 -1.28517,0.1457 -1.37347,0.41149 -2.39854,7.22693 -4.86526,14.08289 -6.25561,21.93984 -0.12015,0.67825 1.33436,4.44204 3.69316,5.7252 0.43489,0.2371 7.67985,0.2123 8.27851,0.18623 0.50906,-0.0221 1.46347,-0.18263 1.84081,-0.60574 0.57412,-0.64396 0.93152,-1.76897 1.24058,-2.86286 0.38091,-1.34837 0.96259,-3.42653 0.25972,-3.55109 -2.38046,-0.42202 -4.63294,0.0316 -7.1344,-0.23443 -0.15341,-0.0165 -0.36081,-0.0998 -0.30472,-0.39144 1.26367,-6.56329 3.61294,-12.39785 5.01508,-18.81846 0.11648,-0.53303 -0.9833,-0.93759 -1.39535,-1.07727 -1.46424,-0.49632 -2.87458,-0.72495 -3.86431,-0.72165 z m 58.1753,0.18098 c -1.00437,0.11722 -1.50188,0.60985 -1.88876,1.385 -0.15066,0.30199 -0.37236,1.36181 -0.58507,2.34819 -0.20543,0.95252 -0.34706,1.6957 -0.44487,2.11273 -0.23957,1.02137 0.60291,1.17156 1.43779,1.28426 0.44847,0.0606 0.26288,0.70583 0.15323,1.23936 -0.15984,0.7759 -0.37998,1.57723 -0.61118,2.40404 -0.21473,0.76765 -1.13585,0.21229 -1.92702,1.17018 -0.8496,1.02874 -1.2468,3.46864 -1.43356,4.79353 -0.21842,1.54921 1.26932,1.39398 1.10764,2.34694 -0.31523,1.85812 -0.78684,3.92806 -0.89581,5.1207 -0.072,0.79067 1.60137,3.90384 3.44494,3.90619 l 9.21738,0.011 c 0.53992,6.6e-4 1.3592,-0.40703 1.54346,-0.77321 0.79916,-1.58812 1.78802,-4.07873 0.97412,-5.43804 -0.23587,-0.39409 -2.4247,-0.13889 -6.80974,-0.30831 -0.5942,-0.0221 -0.69156,-0.2241 -0.65914,-0.59604 0.0693,-0.7973 0.55778,-2.87727 1.06821,-2.91203 2.37965,-0.16371 6.16543,0.30243 6.99362,-0.19538 0.69971,-0.42057 0.96135,-1.12479 1.54161,-2.81915 0.44229,-1.29146 0.73578,-3.35091 0.1773,-3.59424 -0.26441,-0.1152 -1.19868,-0.31175 -2.70814,-0.34168 -1.31474,-0.0261 -3.46524,0.12144 -4.00814,-0.11979 -0.64932,-0.28801 0.22925,-1.84357 0.011,-2.44711 -0.29595,-0.81409 -1.18883,-0.93107 -1.59076,-1.58043 2.92214,-0.1424 5.40786,-0.16444 8.41811,0.0357 1.13609,0.0753 1.78842,-0.74462 2.01984,-1.21389 0.62473,-1.26666 0.94951,-2.67407 1.03725,-4.71037 0.0493,-1.14682 -1.4117,-1.10142 -2.43682,-1.15071 -2.23359,-0.10748 -5.08779,-0.14698 -7.59934,-0.13504 -2.51158,0.0129 -4.68067,0.0762 -5.5455,0.1773 z m -97.24573,-0.17656 c -0.68456,-0.004 -1.34682,0.0751 -1.92817,0.24154 -0.6575,0.18825 -1.19598,2.22245 -1.53614,3.49712 l -5.98309,22.41935 c -0.22362,0.83728 1.22988,1.35949 2.15212,1.62896 1.31299,0.38365 4.1102,1.01068 4.44639,0.24152 0.67026,-1.53338 1.37759,-4.30185 1.84505,-6.6659 0.0827,-0.4193 0.21891,-0.60763 0.40058,-0.64276 0,0 2.81094,5.51926 3.54021,6.90141 1.37997,2.61534 1.78004,3.7327 3.58939,3.18574 0.85474,-0.25834 1.84947,-0.68514 2.78093,-1.27089 1.49106,-0.93769 1.70749,-1.85921 1.46576,-2.47626 -1.47361,-3.76111 -3.74952,-6.93151 -5.55223,-10.6158 3.06293,-1.42035 5.42537,-3.5224 7.22369,-6.04195 1.69467,-2.37435 3.68528,-6.56391 3.6968,-8.01329 0.002,-0.46002 -0.94252,-1.18508 -2.49263,-1.66905 -1.54483,-0.48231 -3.14855,-0.733 -3.4237,-0.24325 -2.0532,3.6535 -3.30637,8.03523 -7.84698,9.72905 -0.21031,0.0783 -0.31935,-0.046 -0.24104,-0.3241 0.24641,-0.87425 0.6421,-2.406 1.07245,-3.57422 0.9516,-2.58301 1.42533,-4.80755 1.01234,-5.10121 -1.10131,-0.78311 -2.71571,-1.19684 -4.22181,-1.20598 z m 19.13649,0.1095 c -1.00854,0.10344 -1.57208,0.78248 -1.9701,1.55131 -0.3048,0.58873 -1.02299,2.95593 -1.24726,4.34501 -0.16694,1.03363 0.73458,1.12089 1.57014,1.24479 0.22237,0.0329 0.40785,0.77967 0.24703,1.22538 -0.26387,0.73128 -0.51765,1.62322 -0.74346,2.46235 -0.2069,0.76864 -1.35089,0.31773 -1.87849,0.93708 -0.86525,1.01584 -1.38434,3.80683 -1.58892,5.12731 -0.17648,1.13796 1.29372,1.09964 1.13858,1.87482 -0.36942,1.84581 -0.812,3.52137 -1.00448,5.3531 -0.0827,0.78857 1.70925,4.0204 3.55784,4.02396 l 9.62104,0.0147 c 0.35549,6.1e-4 1.00791,-0.37975 1.19747,-0.74292 0.82211,-1.5751 1.72857,-4.03449 0.93041,-5.40284 -0.26465,-0.45383 -4.70322,-0.23663 -6.5609,-0.3332 -0.59534,-0.0309 -1.05042,-0.0647 -0.98078,-0.43156 0.23587,-1.24145 0.67681,-3.02259 1.18894,-3.0504 2.38791,-0.13045 6.84836,0.18988 7.19455,-0.0981 0.65405,-0.54448 1.28129,-1.75692 1.55372,-2.85198 0.27314,-1.09796 0.8056,-3.29846 0.26828,-3.66523 -0.23834,-0.1626 -1.21282,-0.19924 -2.7257,-0.24947 -1.31779,-0.0435 -3.49377,0.0355 -4.03486,-0.21252 -0.64702,-0.29649 0.21448,-1.85669 0.002,-2.46231 -0.28604,-0.8169 -1.29644,-0.95754 -1.6909,-1.61138 2.93171,-0.10234 5.40191,-0.0656 8.41994,0.1422 0.45324,0.0313 1.51036,-0.0403 1.74856,-0.50558 0.64293,-1.25645 1.47692,-3.07915 1.53492,-5.11335 0.0353,-1.24084 -1.52838,-1.27862 -2.4866,-1.3559 -2.79313,-0.22505 -6.59638,-0.32278 -9.48027,-0.32105 -1.73035,6.3e-4 -3.1299,0.0379 -3.78118,0.10492 z m 105.18979,6.2028 c 0.61206,2.3215 0.53347,5.58214 -0.19313,8.30521 -0.5989,2.24489 -1.47365,4.08388 -2.83922,5.6529 -1.42501,1.63735 -3.08782,0.68234 -3.14937,-2.40279 -0.0387,-1.94878 0.57849,-3.70498 1.21812,-5.45629 1.10621,-3.02879 3.71443,-5.15581 4.96346,-6.09903 z m -45.9123,0.0814 c 1.70245,-0.0497 3.47902,0.58689 4.55801,1.84263 1.6746,1.94891 1.51722,4.64713 0.72409,6.885 -0.88907,2.50859 -3.18175,5.2676 -5.90057,5.58437 0.63577,-3.96943 2.35036,-9.0371 2.63346,-11.56929 0.17122,-1.53271 -1.53586,-2.22809 -2.73781,-2.67898 0.23782,-0.0353 0.47958,-0.0564 0.72282,-0.0637 z m -20.11361,13.8829 c -0.51542,0.64851 -1.37512,1.16444 -2.07145,0.62936 -0.99929,-0.76789 -0.43716,-7.03237 0.0247,-8.34283 0.89123,-2.53099 2.66112,-4.48057 5.0345,-6.09963 1.10545,4.21614 -0.2081,10.31621 -2.98727,13.8131 z m 103.18925,-20.15401 h 2.57181 c 0.5515,0 0.99767,0.13277 1.33857,0.39857 0.36096,0.28073 0.54143,0.66425 0.54143,1.15056 0,0.65171 -0.31082,1.08536 -0.93249,1.30096 v 0.0226 c 0.45121,0.15038 0.70818,0.4793 0.7821,0.98511 0.0213,0.14596 0.045,0.31835 0.0729,0.79092 0.0279,0.47254 0.0754,0.63549 0.15057,0.66053 v 0.0677 h -1.29346 c -0.055,-0.0351 -0.0954,-0.18807 -0.13431,-0.59536 -0.0389,-0.4073 -0.0538,-0.54267 -0.0689,-0.65296 -0.0702,-0.51137 -0.36852,-0.76703 -0.89489,-0.76703 h -0.80463 v 2.01535 h -1.33103 z m 2.33117,2.37631 c 0.53142,0 0.79712,-0.21807 0.79712,-0.65423 0,-0.20053 -0.0625,-0.36096 -0.18798,-0.48129 -0.13547,-0.12535 -0.32838,-0.18798 -0.57904,-0.18798 h -1.03024 v 1.3235 z m -0.19696,-3.8993 c -2.40997,0.003 -4.36138,1.96011 -4.36138,4.36579 0,2.40903 1.95676,4.36493 4.36577,4.36493 2.40905,0 4.36493,-1.9559 4.36493,-4.36493 0,-2.40902 -1.95602,-4.36838 -4.36932,-4.36579 z m 6.9e-4,0.46136 c 2.162,-0.001 3.90797,1.74642 3.90797,3.90443 0,2.15803 -1.7464,3.90357 -3.90445,3.90357 -2.158,0 -3.90442,-1.74554 -3.90442,-3.90357 0,-2.15493 1.74201,-3.90224 3.9009,-3.90443 z"
         sodipodi:nodetypes="cccccccccccccccccccccccccccccccccccccccccccccccccccccccccccccccccccccccccccccccccccccccccccccccccccccccccccccccccccccccccccccccccccccccccccccccccccccccccccccccccccccccccccccccccccccccccccccccccccccccccccccccccccccccccccccccccccccccccccccccccccccccccccccccccccccc" />
    </g>
  </g>
</svg>
